<!--?xml version="1.0" encoding="UTF-8"?-->
<svg width="720" height="220" viewBox="0 0 720 220" xmlns="http://www.w3.org/2000/svg">
  <defs>
    <style>
      .label{font:12px -apple-system,BlinkMacSystemFont,"Segoe UI",Helvetica,Arial,sans-serif; fill:#57606a}
      .tick{font:12px -apple-system,BlinkMacSystemFont,"Segoe UI",Helvetica,Arial,sans-serif; fill:#6e7781}
      .title{font:700 16px -apple-system,BlinkMacSystemFont,"Segoe UI",Helvetica,Arial,sans-serif; fill:#24292f}
      .val{font:11px -apple-system,BlinkMacSystemFont,"Segoe UI",Helvetica,Arial,sans-serif; fill:#0b0d0e}
      .track{fill:#e6edf3}
      .bar-python{fill:#1f6feb}
      .bar-torch{fill:#8250df}
      .bar-nlp{fill:#0969da}
      .bar-de{fill:#218bff}
      .bar-mlops{fill:#54aeff}
    </style>
  </defs>

  <rect x="0.5" y="0.5" width="719" height="219" fill="#fff" stroke="#d0d7de"></rect>
  <text class="title" x="24" y="30">🧠 Skill Snapshot</text>

  <line x1="140" y1="44" x2="140" y2="190" stroke="#d0d7de"></line>
  <line x1="140" y1="190" x2="690" y2="190" stroke="#d0d7de"></line>
  <text class="tick" x="130" y="195" text-anchor="end">0</text>
  <text class="tick" x="690" y="205" text-anchor="end">100</text>

  <text class="label" x="130" y="70" text-anchor="end">Python</text>
  <rect class="track" x="140" y="58" width="550" height="18" rx="4"></rect>
  <rect class="bar-python" x="140" y="58" width="506" height="18" rx="4"></rect>
  <text class="val" x="660" y="71" text-anchor="end">92</text>

  <text class="label" x="130" y="100" text-anchor="end">PyTorch</text>
  <rect class="track" x="140" y="88" width="550" height="18" rx="4"></rect>
  <rect class="bar-torch" x="140" y="88" width="468" height="18" rx="4"></rect>
  <text class="val" x="660" y="101" text-anchor="end">85</text>

  <text class="label" x="130" y="130" text-anchor="end">NLP / LLMs</text>
  <rect class="track" x="140" y="118" width="550" height="18" rx="4"></rect>
  <rect class="bar-nlp" x="140" y="118" width="484" height="18" rx="4"></rect>
  <text class="val" x="660" y="131" text-anchor="end">88</text>

  <text class="label" x="130" y="160" text-anchor="end">Data Engineering</text>
  <rect class="track" x="140" y="148" width="550" height="18" rx="4"></rect>
  <rect class="bar-de" x="140" y="148" width="440" height="18" rx="4"></rect>
  <text class="val" x="660" y="161" text-anchor="end">80</text>

  <text class="label" x="130" y="190" text-anchor="end">MLOps</text>
  <rect class="track" x="140" y="178" width="550" height="18" rx="4"></rect>
  <rect class="bar-mlops" x="140" y="178" width="424" height="18" rx="4"></rect>
  <text class="val" x="660" y="191" text-anchor="end">77</text>
</svg>
